<?xml version="1.0" encoding="utf-8"?>
<!-- Generator: Adobe Illustrator 24.0.0, SVG Export Plug-In . SVG Version: 6.00 Build 0)  -->
<svg version="1.1" id="Layer_1" xmlns="http://www.w3.org/2000/svg" xmlns:xlink="http://www.w3.org/1999/xlink" x="0px" y="0px"
	 viewBox="0 0 856 111.9" style="enable-background:new 0 0 856 111.9;" xml:space="preserve">
<style type="text/css">
	.st0{enable-background:new    ;}
	.st1{fill:#48D1CC;}
	.st2{fill:none;stroke:#48D1CC;}
	.st3{fill:none;stroke:#48D1CC;stroke-width:3;stroke-miterlimit:10;}
	.st4{fill:#707070;}
	.st5{fill:none;stroke:#707070;stroke-width:1.5;}
</style>
<g id="Component_1_1" transform="translate(1.5 1.5)">
	<g id="Group_1" transform="translate(-287 -204)">
		<g class="st0">
			<path class="st1" d="M325.4,264.4c-6,0-8.5-3.1-8.5-8.8c0-2.8,0.6-6.3,1.7-10.2c-6.2,10.9-12.8,18.3-19.5,18.3
				c-1.8,0-2.8-1.2-2.8-3c0-4.4,6.2-10.5,10.8-10.5c1.6,0,2.4,0.6,2.7,1.8c-0.3,0.8-1.6,1.4-1.7,0.3c-0.1-0.3-0.4-0.4-1-0.4
				c-4,0-9.1,5-9.1,8.8c0,0.8,0.4,1.3,1.1,1.3c7.6,0,16.7-13.1,23.6-28.4c1.8-0.8,1.6,0.6,1.6,0.6c-2.3,4.6-5.7,15.9-5.7,21.5
				c0,4.6,2,7.2,6.8,7.2c4.6,0,12.2-1.3,20.1-6.3c0,0,1.2-0.7,0.9,1.5C338.2,263.1,330.2,264.4,325.4,264.4z"/>
			<path class="st1" d="M344.6,276.6c6.4-13,13.2-25.6,17.9-25.6c5.8,0,2.9,13.3,12.6,13.3c7.7,0,16.8-3.4,23.1-7.8
				c0,0,0.9-0.8,1,1.4c-6.5,4.5-16.6,8.1-24,8.1c-10.8,0-8.7-13.3-12.6-13.3c-5,0-18.3,27.8-21.3,34.7c-0.1,0.1-0.9,1.1-1.6-0.6
				c3.8-11.1,5.8-19.6,8.7-30.1c-0.6,0.4-1.3,0.9-1.8,1.2c0,0-1.4,0.8-0.9-1.5c1.1-0.6,2.5-1.6,3.4-2.2c1.8-0.7,1.6,0.4,1.6,0.4
				C348.4,262.3,346.7,269.2,344.6,276.6z"/>
		</g>
		<g class="st0">
			<path class="st2" d="M325.4,264.4c-6,0-8.5-3.1-8.5-8.8c0-2.8,0.6-6.3,1.7-10.2c-6.2,10.9-12.8,18.3-19.5,18.3
				c-1.8,0-2.8-1.2-2.8-3c0-4.4,6.2-10.5,10.8-10.5c1.6,0,2.4,0.6,2.7,1.8c-0.3,0.8-1.6,1.4-1.7,0.3c-0.1-0.3-0.4-0.4-1-0.4
				c-4,0-9.1,5-9.1,8.8c0,0.8,0.4,1.3,1.1,1.3c7.6,0,16.7-13.1,23.6-28.4c1.8-0.8,1.6,0.6,1.6,0.6c-2.3,4.6-5.7,15.9-5.7,21.5
				c0,4.6,2,7.2,6.8,7.2c4.6,0,12.2-1.3,20.1-6.3c0,0,1.2-0.7,0.9,1.5C338.2,263.1,330.2,264.4,325.4,264.4z"/>
			<path class="st2" d="M344.6,276.6c6.4-13,13.2-25.6,17.9-25.6c5.8,0,2.9,13.3,12.6,13.3c7.7,0,16.8-3.4,23.1-7.8
				c0,0,0.9-0.8,1,1.4c-6.5,4.5-16.6,8.1-24,8.1c-10.8,0-8.7-13.3-12.6-13.3c-5,0-18.3,27.8-21.3,34.7c-0.1,0.1-0.9,1.1-1.6-0.6
				c3.8-11.1,5.8-19.6,8.7-30.1c-0.6,0.4-1.3,0.9-1.8,1.2c0,0-1.4,0.8-0.9-1.5c1.1-0.6,2.5-1.6,3.4-2.2c1.8-0.7,1.6,0.4,1.6,0.4
				C348.4,262.3,346.7,269.2,344.6,276.6z"/>
		</g>
		<ellipse id="Ellipse_2" class="st3" cx="343.1" cy="258.5" rx="56.1" ry="54.5"/>
	</g>
	<g class="st0">
		<path class="st4" d="M149.5,45.5c0-11.3,18.7-22,47.2-22c3.9,0,7.5,0.2,10.7,0.6c2-2.6,4.1-4.5,6.4-5.2c1.6,0.7,0.5,1.3,0.5,1.3
			c-1.8,0.6-3.6,2-5.2,4.1c19,2.9,23.4,12.8,23.4,21.4c0,16.8-18,28-41.2,28c-5.4,0-9.2-0.9-12-2.1c-2.3,1.3-4.8,2.2-7.4,2.2
			c-5.4,0-6.9-2.4-6.9-4c0-2.4,1.3-3.6,4.6-3.6c2.5,0,4.2,1,6.3,2.2c0.9,0.5,2,1.2,3.2,1.7c5-3.3,9.2-9.6,13-16.8
			c-7.6,2.5-16.4,3.9-27.3,3.9C154.5,57.2,149.5,51.9,149.5,45.5z M206.3,25.5c-2.9-0.3-6.1-0.5-9.6-0.5c-27.6,0-45.7,10-45.7,20.6
			c0,5.6,4.6,10.2,13.7,10.2c11.3,0,20.4-1.5,28.2-4.3c1.6-3,3-6.1,4.5-9.2C200.4,35.9,203.2,29.8,206.3,25.5z M169.4,67.7
			c-2.2,0-3.1,0.7-3.1,2.2c0,1.1,1.2,2.5,5.4,2.5c2,0,3.9-0.5,5.7-1.4c-0.9-0.4-1.7-0.9-2.4-1.3C173.1,68.6,171.5,67.7,169.4,67.7z
			 M193.9,52.6c-3.9,7.5-8.2,14.3-13.4,18.1c2.5,0.9,5.9,1.6,10.6,1.6c22.5,0,39.8-10.7,39.8-26.5c0-8.1-4.3-17.4-22.9-20.1
			c-3.2,4.3-6.1,10.6-9.3,17.1c-1.2,2.6-2.5,5.3-3.8,7.9c5.4-2.1,10.3-4.8,15.1-7.9c1.9,0.6,0.8,1.2,0.8,1.2
			C205.4,47.5,200,50.4,193.9,52.6z"/>
		<path class="st4" d="M247.1,57.5c0,0-1.5,9.5,6.9,9.5c3.9,0,12-1,20.1-6.7c0.8-0.6,0.8,1.2,0.8,1.2c-8.8,5.9-16.8,7-20.9,7
			c-6.4,0-8-4.5-8.4-7.8c-2,3.2-4.9,5.8-7.2,5.8c-1.6,0-2.4-0.9-2.4-2.6c0-3.8,7.4-10.4,11.1-10.4c1.3,0,2.1,0.5,2.3,1.5
			c-0.1,0.3-1.3,1.2-1.4,0.3c0-0.2-0.3-0.4-0.9-0.4c-3.7,0-9.7,5.7-9.7,8.9c0,0.7,0.3,1.2,1,1.2c2.4,0,5.8-3.9,7.2-7.7
			C245.7,57.4,247.2,56.3,247.1,57.5z"/>
		<path class="st4" d="M300.7,69.7c-9.9,0-8.9-5.1-8.8-9.1c0-1.9,0-3.4-1.5-3.4c-1.9,0-6,2.7-8.9,5.3c-2.7,2.4-5.3,4.8-7.1,4.8
			c-1.4,0-1.9-0.9-1.9-2.2c0-1.6,1-3.9,1.4-4.8c0,0,0.9-0.9,1.3,0.7c-0.3,0.7-1.2,2.7-1.2,4.1c0,0.4,0.1,0.8,0.4,0.8
			c1.2,0,3.6-2.2,6.1-4.4c3-2.7,7.5-5.7,9.8-5.7c3,0,2.9,2.2,2.9,4.8c0,3.3-1.1,7.6,7.4,7.6c6.2,0,17.7-2.3,25.4-8
			c0.9-0.6,0.8,1.2,0.8,1.2C318.2,67.5,307.2,69.7,300.7,69.7z"/>
		<path class="st4" d="M333.9,68c-5.7,0-8.4-1.9-8.4-5.8c0-0.6,0.1-1.1,0.2-1.7c0.8-0.8,1.8-0.7,1.4,0c-0.1,0.5-0.2,1.1-0.2,1.6
			c-0.1,2.9,2.2,4.3,6.9,4.3c6.4,0,14.6-1.7,21.1-6.2c1-0.5,0.8,1.2,0.8,1.2C349.1,65.9,340.6,68,333.9,68z M327.5,50.6
			c2.7,0,1.5,2.2-0.9,2.2C325.3,52.7,327.3,51.4,327.5,50.6z"/>
		<path class="st4" d="M387.8,61.6c-6,3.5-16.8,7.9-28,7.9c-4.7,0-6.4-1.7-6.4-4.3c0-4.9,5.2-9.4,9.7-9.4c2,0,2.9,1.1,2.9,2.4
			c0,2.9-3.6,4.1-5.7,4.1c-1.4,0-3-0.2-4.4-0.7c-0.7,1.1-1.1,2.4-1.1,3.6c0,1.7,1.3,2.8,5,2.8c10.8,0,21.4-4.3,27.3-7.8
			C387.1,60.3,387.9,59.9,387.8,61.6z M356.8,60.3c1.2,0.3,2.3,0.5,3.5,0.5c1.5,0,4.2-0.8,4.2-2.7c0-0.5-0.4-0.9-1.4-0.9
			C360.9,57.3,358.5,58.5,356.8,60.3z"/>
		<path class="st4" d="M387,60.3c6.7-4.7,12-15.2,12-19.1c0-2-0.7-3.2-2.3-3.2c-3.9,0-10.4,15-10.1,24.6c0.1,4.6,2,7,5.4,7
			c7.4,0,12.9-3.2,18.7-7.9c0-0.4-0.1-0.9-0.1-1.3c-0.2-7,4.8-19.4,9.4-19.4c2.5,0,3.7,1.8,3.7,4.7c0,4.2-3.4,10.1-10.5,15.9
			c-0.3,0.3-0.6,0.5-0.9,0.8c0.9,4.1,4.2,5.9,8.9,5.9c7.5,0,15.5-3,22.8-7.8c0,0,0.8-0.6,0.8,1.2c-7.5,4.9-15.8,8.1-23.6,8.1
			c-4.8,0-8.9-1.6-10.2-6.3c-5.8,4.6-11.6,7.7-19,7.7c-4.5,0-6.7-2.9-6.9-8.4c-0.3-10.2,7.1-26.1,11.6-26.1c2.5,0,3.7,1.8,3.7,4.7
			c0,4.2-5.6,15.4-12.6,20.2C387.9,61.4,386.3,61,387,60.3z M412.1,60.6c6.6-5.2,10.2-11.1,10.2-15c0-2-0.7-3.2-2.3-3.2
			C416.2,42.4,411.9,53.8,412.1,60.6z"/>
		<path class="st4" d="M476.7,61.6c-6,3.5-16.8,7.9-28,7.9c-4.7,0-6.4-1.7-6.4-4.3c0-4.9,5.2-9.4,9.7-9.4c2,0,2.9,1.1,2.9,2.4
			c0,2.9-3.6,4.1-5.7,4.1c-1.4,0-3-0.2-4.4-0.7c-0.7,1.1-1.1,2.4-1.1,3.6c0,1.7,1.3,2.8,5,2.8c10.8,0,21.4-4.3,27.3-7.8
			C476,60.3,476.8,59.9,476.7,61.6z M445.8,60.3c1.2,0.3,2.3,0.5,3.5,0.5c1.5,0,4.2-0.8,4.2-2.7c0-0.5-0.4-0.9-1.4-0.9
			C449.8,57.3,447.4,58.5,445.8,60.3z"/>
		<path class="st4" d="M524.9,72.7c1,0.2,1.9,0.3,2.8,0.3c6.8,0,11.8-7.4,16.1-16.6c-4.1-2.1-6.2-5.4-6.2-8.6
			c0-5.9,5.3-10.6,11.2-10.6c0,0,1.8,0.1,0,1.4c-5.1,0-9.7,4.1-9.7,9.2c0,2.7,1.8,5.6,5.4,7.3c1.4-3.1,2.7-6.3,4-9.5
			c2.9-7.2,6-14.7,9.8-20c-1.9-0.1-3.8-0.2-5.7-0.2c-18,0-44.6,9.5-44.6,24.2c0,6,4.4,7.9,8.5,7.9c1.3,1.3,0,1.4,0,1.4
			c-4.8,0-10-2.3-10-9.4c0-15.6,27.5-25.7,46-25.7c2.2,0,4.5,0.1,6.7,0.3c2.2-2.8,4.6-4.8,7.4-5.6c1.3,1,0.4,1.3,0.4,1.3
			c-2.3,0.7-4.3,2.3-6.1,4.4c10.6,1.1,20.2,4.8,20.2,14.9c0,13.8-15,19.2-27.7,19.2c-3.3,0-6-0.5-8.4-1.4
			c-4.5,9.6-9.6,17.4-17.4,17.4c-1,0-2-0.1-3.2-0.4C524.5,74.1,523.2,73.5,524.9,72.7z M559.9,25.9c-3.8,5.1-6.9,12.8-10.1,20.4
			c-1.3,3.2-2.6,6.4-4,9.5c2.1,0.8,4.7,1.3,7.7,1.3c12,0,26.3-5,26.3-17.7C579.8,30.1,570.2,26.8,559.9,25.9z"/>
		<path class="st4" d="M590.8,57.5c0,0-1.5,9.5,6.9,9.5c3.9,0,12-1,20.1-6.7c0.8-0.6,0.8,1.2,0.8,1.2c-8.8,5.9-16.8,7-20.9,7
			c-6.4,0-8-4.5-8.4-7.8c-2,3.2-4.9,5.8-7.2,5.8c-1.6,0-2.4-0.9-2.4-2.6c0-3.8,7.4-10.4,11.1-10.4c1.3,0,2.1,0.5,2.3,1.5
			c-0.1,0.3-1.3,1.2-1.4,0.3c0-0.2-0.3-0.4-0.9-0.4c-3.7,0-9.7,5.7-9.7,8.9c0,0.7,0.3,1.2,1,1.2c2.4,0,5.8-3.9,7.2-7.7
			C589.4,57.4,590.9,56.3,590.8,57.5z"/>
		<path class="st4" d="M668,61.5c-2.9,1.9-7.2,4.1-15.2,4.1c-7.2,0-11.1-1.7-13.2-3.9c-3.1,3.3-7.8,6.5-10.3,6.5
			c-3.3,0-4.5-5-4.7-10.8c-2,1.5-3.7,2.7-5.9,4.1c-1.1,0.5-0.7-1.3-0.7-1.3c2.6-1.6,4.4-3,7.2-5.1c1.1-0.6,0.9,1.2,0.9,1.2
			c0.1,5.4,0.7,10.5,3.3,10.5c2.3,0,6.7-3,9.5-6c-1-1.4-1.3-3-1.3-4.3c0-1.7,0.8-3.4,2.6-3.4c2.3,0,2.7,1.7,2.7,3.1
			c0,1.2-0.9,2.9-2.3,4.5c1.8,2,5.4,3.6,12.3,3.6c7.6,0,11.6-1.9,14.4-3.9C667.2,60.3,667.9,59.7,668,61.5z M639.7,59.6
			c1-1.2,1.6-2.5,1.6-3.5c0-0.7-0.3-1.7-1.3-1.7c-0.8,0-1.2,0.9-1.2,1.9C638.8,57.4,639,58.5,639.7,59.6z"/>
		<path class="st4" d="M676.9,57.5c0,0-1.5,9.5,6.9,9.5c3.9,0,12-1,20.1-6.7c0.8-0.6,0.8,1.2,0.8,1.2c-8.8,5.9-16.8,7-20.9,7
			c-6.4,0-8-4.5-8.4-7.8c-2,3.2-4.9,5.8-7.2,5.8c-1.6,0-2.4-0.9-2.4-2.6c0-3.8,7.4-10.4,11.1-10.4c1.3,0,2.1,0.5,2.3,1.5
			c-0.1,0.3-1.3,1.2-1.4,0.3c0-0.2-0.3-0.4-0.9-0.4c-3.7,0-9.7,5.7-9.7,8.9c0,0.7,0.3,1.2,1,1.2c2.4,0,5.8-3.9,7.2-7.7
			C675.4,57.4,676.9,56.3,676.9,57.5z"/>
		<path class="st4" d="M741.6,61.6c-6.2,4-18.7,9.3-28.1,14.4c-3.5,7.5-7.5,13.9-10.9,13.9c-1.9,0-2.9-1.3-2.9-2.9
			c0-3.9,5.6-8,12.8-12c2.1-4.8,3.9-10,5.2-14.3c-0.5,0.5-1.2,1-1.9,1.5c-1.7,3.6-5.7,5.8-9.7,5.8c-1.4,0-3.6-0.7-3.6-3.6
			c0-1,0.4-2.8,1.2-3.9c0.9-0.9,1.2,0.8,1.2,0.8c-0.6,0.9-1,2.3-1,3.1c0,1.7,1.3,2.1,2.1,2.1c2.6,0,5.3-1.1,7.1-3
			c-1.2,0.4-2.6,0.7-4.3,0.7c-2,0-3.2-1.1-3.2-3.1c0-2.8,3.9-6.9,7.2-6.9c2.5,0,3.7,1.4,3.7,4.1c0,0.5,0,1-0.1,1.4
			c1-0.9,1.7-1.8,2.1-2.3c0,0,1.6-0.7,1.4,0.4c-1.2,4.4-3.2,10.4-5.6,16c9.3-4.8,20.5-9.6,26.5-13.5
			C740.8,60.4,741.7,59.6,741.6,61.6z M711.4,77.1c-6,3.5-10.4,6.9-10.4,9.8c0,0.9,0.5,1.5,1.5,1.5
			C705.2,88.5,708.5,83.4,711.4,77.1z M714.6,61.2c0.4-0.9,0.6-1.8,0.6-2.8c0-1.8-0.8-2.7-2.3-2.7c-2.6,0-5.8,3.3-5.8,5.4
			c0,1,0.6,1.7,1.7,1.7C711.2,62.8,713.1,62.1,714.6,61.2z"/>
		<path class="st4" d="M773.5,61.6c-6,3.5-16.8,7.9-28,7.9c-4.7,0-6.4-1.7-6.4-4.3c0-4.9,5.2-9.4,9.7-9.4c2,0,2.9,1.1,2.9,2.4
			c0,2.9-3.6,4.1-5.7,4.1c-1.4,0-3-0.2-4.4-0.7c-0.7,1.1-1.1,2.4-1.1,3.6c0,1.7,1.3,2.8,5,2.8c10.8,0,21.4-4.3,27.3-7.8
			C772.8,60.3,773.6,59.9,773.5,61.6z M742.6,60.3c1.2,0.3,2.3,0.5,3.5,0.5c1.5,0,4.2-0.8,4.2-2.7c0-0.5-0.4-0.9-1.4-0.9
			C746.6,57.3,744.2,58.5,742.6,60.3z"/>
		<path class="st4" d="M782.4,57.5c0,0-1.5,9.5,6.9,9.5c3.9,0,12-1,20.1-6.7c0.8-0.6,0.8,1.2,0.8,1.2c-8.8,5.9-16.8,7-20.9,7
			c-6.4,0-8-4.5-8.4-7.8c-2,3.2-4.9,5.8-7.2,5.8c-1.6,0-2.4-0.9-2.4-2.6c0-3.8,7.4-10.4,11.1-10.4c1.3,0,2.1,0.5,2.3,1.5
			c-0.1,0.3-1.3,1.2-1.4,0.3c0-0.2-0.3-0.4-0.9-0.4c-3.7,0-9.7,5.7-9.7,8.9c0,0.7,0.3,1.2,1,1.2c2.4,0,5.8-3.9,7.2-7.7
			C781,57.4,782.5,56.3,782.4,57.5z"/>
		<path class="st4" d="M830.9,68.6c-5.6,0-7.5-3.6-7.5-6.8c0-0.5,0-1.1,0.1-1.6c-2.2,2.3-5.1,4.6-7.2,4.6c-1.7,0-2.3-1-2.3-2.4
			c0-1.2,0.4-2.8,1.1-4.3c-1.7,1.2-3.4,2.4-5,3.3c-1.1,0.5-0.7-1.3-0.7-1.3c2.3-1.4,5.7-3.7,7.8-5.4c1-0.8,0.9,1.2,0.9,1.2
			c-1.2,1.1-2.6,4.8-2.6,6.5c0,0.5,0.2,0.9,0.8,0.9c2.2,0,6-3.7,7.9-6.2c1.5-0.4,1.3,0.5,1.3,0.5s-0.7,2-0.7,4.2
			c0,2.4,1.6,5.3,6.1,5.3c3.9,0,11.6-0.6,20.9-6.9c0.9-0.4,0.8,1.2,0.8,1.2C843.4,67.6,835.1,68.6,830.9,68.6z"/>
	</g>
	<g class="st0">
		<path class="st5" d="M149.5,45.5c0-11.3,18.7-22,47.2-22c3.9,0,7.5,0.2,10.7,0.6c2-2.6,4.1-4.5,6.4-5.2c1.6,0.7,0.5,1.3,0.5,1.3
			c-1.8,0.6-3.6,2-5.2,4.1c19,2.9,23.4,12.8,23.4,21.4c0,16.8-18,28-41.2,28c-5.4,0-9.2-0.9-12-2.1c-2.3,1.3-4.8,2.2-7.4,2.2
			c-5.4,0-6.9-2.4-6.9-4c0-2.4,1.3-3.6,4.6-3.6c2.5,0,4.2,1,6.3,2.2c0.9,0.5,2,1.2,3.2,1.7c5-3.3,9.2-9.6,13-16.8
			c-7.6,2.5-16.4,3.9-27.3,3.9C154.5,57.2,149.5,51.9,149.5,45.5z M206.3,25.5c-2.9-0.3-6.1-0.5-9.6-0.5c-27.6,0-45.7,10-45.7,20.6
			c0,5.6,4.6,10.2,13.7,10.2c11.3,0,20.4-1.5,28.2-4.3c1.6-3,3-6.1,4.5-9.2C200.4,35.9,203.2,29.8,206.3,25.5z M169.4,67.7
			c-2.2,0-3.1,0.7-3.1,2.2c0,1.1,1.2,2.5,5.4,2.5c2,0,3.9-0.5,5.7-1.4c-0.9-0.4-1.7-0.9-2.4-1.3C173.1,68.6,171.5,67.7,169.4,67.7z
			 M193.9,52.6c-3.9,7.5-8.2,14.3-13.4,18.1c2.5,0.9,5.9,1.6,10.6,1.6c22.5,0,39.8-10.7,39.8-26.5c0-8.1-4.3-17.4-22.9-20.1
			c-3.2,4.3-6.1,10.6-9.3,17.1c-1.2,2.6-2.5,5.3-3.8,7.9c5.4-2.1,10.3-4.8,15.1-7.9c1.9,0.6,0.8,1.2,0.8,1.2
			C205.4,47.5,200,50.4,193.9,52.6z"/>
		<path class="st5" d="M247.1,57.5c0,0-1.5,9.5,6.9,9.5c3.9,0,12-1,20.1-6.7c0.8-0.6,0.8,1.2,0.8,1.2c-8.8,5.9-16.8,7-20.9,7
			c-6.4,0-8-4.5-8.4-7.8c-2,3.2-4.9,5.8-7.2,5.8c-1.6,0-2.4-0.9-2.4-2.6c0-3.8,7.4-10.4,11.1-10.4c1.3,0,2.1,0.5,2.3,1.5
			c-0.1,0.3-1.3,1.2-1.4,0.3c0-0.2-0.3-0.4-0.9-0.4c-3.7,0-9.7,5.7-9.7,8.9c0,0.7,0.3,1.2,1,1.2c2.4,0,5.8-3.9,7.2-7.7
			C245.7,57.4,247.2,56.3,247.1,57.5z"/>
		<path class="st5" d="M300.7,69.7c-9.9,0-8.9-5.1-8.8-9.1c0-1.9,0-3.4-1.5-3.4c-1.9,0-6,2.7-8.9,5.3c-2.7,2.4-5.3,4.8-7.1,4.8
			c-1.4,0-1.9-0.9-1.9-2.2c0-1.6,1-3.9,1.4-4.8c0,0,0.9-0.9,1.3,0.7c-0.3,0.7-1.2,2.7-1.2,4.1c0,0.4,0.1,0.8,0.4,0.8
			c1.2,0,3.6-2.2,6.1-4.4c3-2.7,7.5-5.7,9.8-5.7c3,0,2.9,2.2,2.9,4.8c0,3.3-1.1,7.6,7.4,7.6c6.2,0,17.7-2.3,25.4-8
			c0.9-0.6,0.8,1.2,0.8,1.2C318.2,67.5,307.2,69.7,300.7,69.7z"/>
		<path class="st5" d="M333.9,68c-5.7,0-8.4-1.9-8.4-5.8c0-0.6,0.1-1.1,0.2-1.7c0.8-0.8,1.8-0.7,1.4,0c-0.1,0.5-0.2,1.1-0.2,1.6
			c-0.1,2.9,2.2,4.3,6.9,4.3c6.4,0,14.6-1.7,21.1-6.2c1-0.5,0.8,1.2,0.8,1.2C349.1,65.9,340.6,68,333.9,68z M327.5,50.6
			c2.7,0,1.5,2.2-0.9,2.2C325.3,52.7,327.3,51.4,327.5,50.6z"/>
		<path class="st5" d="M387.8,61.6c-6,3.5-16.8,7.9-28,7.9c-4.7,0-6.4-1.7-6.4-4.3c0-4.9,5.2-9.4,9.7-9.4c2,0,2.9,1.1,2.9,2.4
			c0,2.9-3.6,4.1-5.7,4.1c-1.4,0-3-0.2-4.4-0.7c-0.7,1.1-1.1,2.4-1.1,3.6c0,1.7,1.3,2.8,5,2.8c10.8,0,21.4-4.3,27.3-7.8
			C387.1,60.3,387.9,59.9,387.8,61.6z M356.8,60.3c1.2,0.3,2.3,0.5,3.5,0.5c1.5,0,4.2-0.8,4.2-2.7c0-0.5-0.4-0.9-1.4-0.9
			C360.9,57.3,358.5,58.5,356.8,60.3z"/>
		<path class="st5" d="M387,60.3c6.7-4.7,12-15.2,12-19.1c0-2-0.7-3.2-2.3-3.2c-3.9,0-10.4,15-10.1,24.6c0.1,4.6,2,7,5.4,7
			c7.4,0,12.9-3.2,18.7-7.9c0-0.4-0.1-0.9-0.1-1.3c-0.2-7,4.8-19.4,9.4-19.4c2.5,0,3.7,1.8,3.7,4.7c0,4.2-3.4,10.1-10.5,15.9
			c-0.3,0.3-0.6,0.5-0.9,0.8c0.9,4.1,4.2,5.9,8.9,5.9c7.5,0,15.5-3,22.8-7.8c0,0,0.8-0.6,0.8,1.2c-7.5,4.9-15.8,8.1-23.6,8.1
			c-4.8,0-8.9-1.6-10.2-6.3c-5.8,4.6-11.6,7.7-19,7.7c-4.5,0-6.7-2.9-6.9-8.4c-0.3-10.2,7.1-26.1,11.6-26.1c2.5,0,3.7,1.8,3.7,4.7
			c0,4.2-5.6,15.4-12.6,20.2C387.9,61.4,386.3,61,387,60.3z M412.1,60.6c6.6-5.2,10.2-11.1,10.2-15c0-2-0.7-3.2-2.3-3.2
			C416.2,42.4,411.9,53.8,412.1,60.6z"/>
		<path class="st5" d="M476.7,61.6c-6,3.5-16.8,7.9-28,7.9c-4.7,0-6.4-1.7-6.4-4.3c0-4.9,5.2-9.4,9.7-9.4c2,0,2.9,1.1,2.9,2.4
			c0,2.9-3.6,4.1-5.7,4.1c-1.4,0-3-0.2-4.4-0.7c-0.7,1.1-1.1,2.4-1.1,3.6c0,1.7,1.3,2.8,5,2.8c10.8,0,21.4-4.3,27.3-7.8
			C476,60.3,476.8,59.9,476.7,61.6z M445.8,60.3c1.2,0.3,2.3,0.5,3.5,0.5c1.5,0,4.2-0.8,4.2-2.7c0-0.5-0.4-0.9-1.4-0.9
			C449.8,57.3,447.4,58.5,445.8,60.3z"/>
		<path class="st5" d="M524.9,72.7c1,0.2,1.9,0.3,2.8,0.3c6.8,0,11.8-7.4,16.1-16.6c-4.1-2.1-6.2-5.4-6.2-8.6
			c0-5.9,5.3-10.6,11.2-10.6c0,0,1.8,0.1,0,1.4c-5.1,0-9.7,4.1-9.7,9.2c0,2.7,1.8,5.6,5.4,7.3c1.4-3.1,2.7-6.3,4-9.5
			c2.9-7.2,6-14.7,9.8-20c-1.9-0.1-3.8-0.2-5.7-0.2c-18,0-44.6,9.5-44.6,24.2c0,6,4.4,7.9,8.5,7.9c1.3,1.3,0,1.4,0,1.4
			c-4.8,0-10-2.3-10-9.4c0-15.6,27.5-25.7,46-25.7c2.2,0,4.5,0.1,6.7,0.3c2.2-2.8,4.6-4.8,7.4-5.6c1.3,1,0.4,1.3,0.4,1.3
			c-2.3,0.7-4.3,2.3-6.1,4.4c10.6,1.1,20.2,4.8,20.2,14.9c0,13.8-15,19.2-27.7,19.2c-3.3,0-6-0.5-8.4-1.4
			c-4.5,9.6-9.6,17.4-17.4,17.4c-1,0-2-0.1-3.2-0.4C524.5,74.1,523.2,73.5,524.9,72.7z M559.9,25.9c-3.8,5.1-6.9,12.8-10.1,20.4
			c-1.3,3.2-2.6,6.4-4,9.5c2.1,0.8,4.7,1.3,7.7,1.3c12,0,26.3-5,26.3-17.7C579.8,30.1,570.2,26.8,559.9,25.9z"/>
		<path class="st5" d="M590.8,57.5c0,0-1.5,9.5,6.9,9.5c3.9,0,12-1,20.1-6.7c0.8-0.6,0.8,1.2,0.8,1.2c-8.8,5.9-16.8,7-20.9,7
			c-6.4,0-8-4.5-8.4-7.8c-2,3.2-4.9,5.8-7.2,5.8c-1.6,0-2.4-0.9-2.4-2.6c0-3.8,7.4-10.4,11.1-10.4c1.3,0,2.1,0.5,2.3,1.5
			c-0.1,0.3-1.3,1.2-1.4,0.3c0-0.2-0.3-0.4-0.9-0.4c-3.7,0-9.7,5.7-9.7,8.9c0,0.7,0.3,1.2,1,1.2c2.4,0,5.8-3.9,7.2-7.7
			C589.4,57.4,590.9,56.3,590.8,57.5z"/>
		<path class="st5" d="M668,61.5c-2.9,1.9-7.2,4.1-15.2,4.1c-7.2,0-11.1-1.7-13.2-3.9c-3.1,3.3-7.8,6.5-10.3,6.5
			c-3.3,0-4.5-5-4.7-10.8c-2,1.5-3.7,2.7-5.9,4.1c-1.1,0.5-0.7-1.3-0.7-1.3c2.6-1.6,4.4-3,7.2-5.1c1.1-0.6,0.9,1.2,0.9,1.2
			c0.1,5.4,0.7,10.5,3.3,10.5c2.3,0,6.7-3,9.5-6c-1-1.4-1.3-3-1.3-4.3c0-1.7,0.8-3.4,2.6-3.4c2.3,0,2.7,1.7,2.7,3.1
			c0,1.2-0.9,2.9-2.3,4.5c1.8,2,5.4,3.6,12.3,3.6c7.6,0,11.6-1.9,14.4-3.9C667.2,60.3,667.9,59.7,668,61.5z M639.7,59.6
			c1-1.2,1.6-2.5,1.6-3.5c0-0.7-0.3-1.7-1.3-1.7c-0.8,0-1.2,0.9-1.2,1.9C638.8,57.4,639,58.5,639.7,59.6z"/>
		<path class="st5" d="M676.9,57.5c0,0-1.5,9.5,6.9,9.5c3.9,0,12-1,20.1-6.7c0.8-0.6,0.8,1.2,0.8,1.2c-8.8,5.9-16.8,7-20.9,7
			c-6.4,0-8-4.5-8.4-7.8c-2,3.2-4.9,5.8-7.2,5.8c-1.6,0-2.4-0.9-2.4-2.6c0-3.8,7.4-10.4,11.1-10.4c1.3,0,2.1,0.5,2.3,1.5
			c-0.1,0.3-1.3,1.2-1.4,0.3c0-0.2-0.3-0.4-0.9-0.4c-3.7,0-9.7,5.7-9.7,8.9c0,0.7,0.3,1.2,1,1.2c2.4,0,5.8-3.9,7.2-7.7
			C675.4,57.4,676.9,56.3,676.9,57.5z"/>
		<path class="st5" d="M741.6,61.6c-6.2,4-18.7,9.3-28.1,14.4c-3.5,7.5-7.5,13.9-10.9,13.9c-1.9,0-2.9-1.3-2.9-2.9
			c0-3.9,5.6-8,12.8-12c2.1-4.8,3.9-10,5.2-14.3c-0.5,0.5-1.2,1-1.9,1.5c-1.7,3.6-5.7,5.8-9.7,5.8c-1.4,0-3.6-0.7-3.6-3.6
			c0-1,0.4-2.8,1.2-3.9c0.9-0.9,1.2,0.8,1.2,0.8c-0.6,0.9-1,2.3-1,3.1c0,1.7,1.3,2.1,2.1,2.1c2.6,0,5.3-1.1,7.1-3
			c-1.2,0.4-2.6,0.7-4.3,0.7c-2,0-3.2-1.1-3.2-3.1c0-2.8,3.9-6.9,7.2-6.9c2.5,0,3.7,1.4,3.7,4.1c0,0.5,0,1-0.1,1.4
			c1-0.9,1.7-1.8,2.1-2.3c0,0,1.6-0.7,1.4,0.4c-1.2,4.4-3.2,10.4-5.6,16c9.3-4.8,20.5-9.6,26.5-13.5
			C740.8,60.4,741.7,59.6,741.6,61.6z M711.4,77.1c-6,3.5-10.4,6.9-10.4,9.8c0,0.9,0.5,1.5,1.5,1.5
			C705.2,88.5,708.5,83.4,711.4,77.1z M714.6,61.2c0.4-0.9,0.6-1.8,0.6-2.8c0-1.8-0.8-2.7-2.3-2.7c-2.6,0-5.8,3.3-5.8,5.4
			c0,1,0.6,1.7,1.7,1.7C711.2,62.8,713.1,62.1,714.6,61.2z"/>
		<path class="st5" d="M773.5,61.6c-6,3.5-16.8,7.9-28,7.9c-4.7,0-6.4-1.7-6.4-4.3c0-4.9,5.2-9.4,9.7-9.4c2,0,2.9,1.1,2.9,2.4
			c0,2.9-3.6,4.1-5.7,4.1c-1.4,0-3-0.2-4.4-0.7c-0.7,1.1-1.1,2.4-1.1,3.6c0,1.7,1.3,2.8,5,2.8c10.8,0,21.4-4.3,27.3-7.8
			C772.8,60.3,773.6,59.9,773.5,61.6z M742.6,60.3c1.2,0.3,2.3,0.5,3.5,0.5c1.5,0,4.2-0.8,4.2-2.7c0-0.5-0.4-0.9-1.4-0.9
			C746.6,57.3,744.2,58.5,742.6,60.3z"/>
		<path class="st5" d="M782.4,57.5c0,0-1.5,9.5,6.9,9.5c3.9,0,12-1,20.1-6.7c0.8-0.6,0.8,1.2,0.8,1.2c-8.8,5.9-16.8,7-20.9,7
			c-6.4,0-8-4.5-8.4-7.8c-2,3.2-4.9,5.8-7.2,5.8c-1.6,0-2.4-0.9-2.4-2.6c0-3.8,7.4-10.4,11.1-10.4c1.3,0,2.1,0.5,2.3,1.5
			c-0.1,0.3-1.3,1.2-1.4,0.3c0-0.2-0.3-0.4-0.9-0.4c-3.7,0-9.7,5.7-9.7,8.9c0,0.7,0.3,1.2,1,1.2c2.4,0,5.8-3.9,7.2-7.7
			C781,57.4,782.5,56.3,782.4,57.5z"/>
		<path class="st5" d="M830.9,68.6c-5.6,0-7.5-3.6-7.5-6.8c0-0.5,0-1.1,0.1-1.6c-2.2,2.3-5.1,4.6-7.2,4.6c-1.7,0-2.3-1-2.3-2.4
			c0-1.2,0.4-2.8,1.1-4.3c-1.7,1.2-3.4,2.4-5,3.3c-1.1,0.5-0.7-1.3-0.7-1.3c2.3-1.4,5.7-3.7,7.8-5.4c1-0.8,0.9,1.2,0.9,1.2
			c-1.2,1.1-2.6,4.8-2.6,6.5c0,0.5,0.2,0.9,0.8,0.9c2.2,0,6-3.7,7.9-6.2c1.5-0.4,1.3,0.5,1.3,0.5s-0.7,2-0.7,4.2
			c0,2.4,1.6,5.3,6.1,5.3c3.9,0,11.6-0.6,20.9-6.9c0.9-0.4,0.8,1.2,0.8,1.2C843.4,67.6,835.1,68.6,830.9,68.6z"/>
	</g>
</g>
</svg>
